<?xml version="1.0" standalone="no"?>
<!DOCTYPE svg PUBLIC "-//W3C//DTD SVG 20010904//EN"
 "http://www.w3.org/TR/2001/REC-SVG-20010904/DTD/svg10.dtd">
<svg version="1.0" xmlns="http://www.w3.org/2000/svg"
 width="700.000000pt" height="700.000000pt" viewBox="0 0 700.000000 700.000000"
 preserveAspectRatio="xMidYMid meet">
<metadata>
Created by potrace 1.14, written by Peter Selinger 2001-2017
</metadata>
<g transform="translate(0.000000,700.000000) scale(0.100000,-0.100000)"
fill="#000000" stroke="none">
<path d="M1790 6751 c-152 -50 -296 -206 -351 -381 -36 -114 -38 -333 -3 -424
4 -11 1 -16 -10 -16 -17 0 -56 -68 -56 -97 0 -10 7 -28 15 -40 14 -20 14 -23
-4 -35 -26 -18 -43 -63 -35 -93 4 -14 0 -33 -10 -47 -24 -33 -20 -82 8 -116
23 -27 24 -32 16 -93 -5 -35 -10 -102 -10 -149 0 -102 -20 -330 -59 -695 -38
-343 -46 -451 -71 -880 -27 -475 -36 -591 -70 -940 -16 -165 -39 -453 -50
-640 -11 -187 -25 -389 -30 -450 -18 -198 -13 -305 22 -490 17 -93 31 -185 30
-204 0 -19 5 -46 13 -60 7 -14 27 -116 45 -226 17 -110 36 -217 41 -237 12
-47 42 -68 95 -68 58 0 88 32 103 111 18 90 87 298 138 418 25 58 70 176 99
261 l54 155 30 420 c35 500 159 2393 195 2965 47 750 45 727 75 805 50 128 72
245 116 630 33 289 29 407 -16 495 -39 76 -121 122 -225 126 -38 2 -81 0 -95
-5z m152 -201 c28 -35 32 -117 12 -294 l-18 -164 -47 -6 c-26 -4 -73 -15 -105
-26 -64 -22 -116 -25 -163 -9 -30 11 -31 12 -31 72 1 160 37 267 124 364 59
65 117 96 171 89 24 -3 47 -13 57 -26z m-161 -1397 c-11 -169 -32 -495 -46
-723 -14 -228 -30 -476 -35 -550 -12 -163 -160 -2410 -160 -2429 0 -10 -10
-12 -37 -8 -20 4 -40 10 -45 15 -5 5 -4 62 2 133 6 68 17 228 25 354 24 377
44 638 65 850 30 306 38 408 65 840 27 434 45 647 105 1308 22 236 40 447 40
468 0 26 6 41 17 48 10 5 19 8 21 6 2 -2 -6 -142 -17 -312z m-201 278 c0 -10
-20 -236 -44 -502 -56 -606 -81 -914 -101 -1239 -22 -366 -43 -637 -65 -860
-21 -210 -42 -473 -65 -830 -30 -462 -38 -540 -52 -540 -11 0 -13 14 -8 68 8
104 33 476 45 687 6 105 24 325 40 490 36 368 43 467 75 1005 24 408 43 636
85 1005 29 265 42 427 43 587 2 146 2 148 25 148 15 0 22 -6 22 -19z m-171
-4161 c41 -6 76 -12 79 -14 5 -5 -63 -213 -77 -234 -5 -9 -25 -12 -57 -10
l-49 3 -22 110 c-30 157 -31 155 15 155 20 0 70 -5 111 -10z"/>
<path d="M4211 6129 c-223 -24 -695 -116 -961 -189 -254 -69 -625 -202 -896
-321 -90 -39 -96 -44 -120 -90 -23 -46 -23 -51 -9 -79 32 -61 68 -64 178 -11
105 51 467 192 622 243 383 125 934 242 1270 268 460 37 1006 -96 1370 -335
106 -69 144 -101 243 -198 318 -315 399 -713 257 -1260 -136 -523 -436 -994
-957 -1502 -545 -533 -1287 -1027 -1913 -1275 -88 -35 -295 -119 -460 -188
-390 -161 -579 -235 -800 -312 -286 -99 -517 -212 -560 -273 -23 -33 -19 -84
10 -112 39 -40 80 -37 151 10 108 71 231 123 574 244 124 44 376 142 560 219
184 76 423 174 530 217 220 87 514 228 699 335 738 426 1408 995 1831 1556
434 575 661 1304 565 1812 -62 326 -264 622 -576 844 -113 81 -374 213 -518
263 -345 118 -756 168 -1090 134z"/>
<path d="M1079 4968 c-63 -45 -368 -282 -479 -372 -168 -136 -369 -327 -380
-361 -20 -60 22 -115 87 -115 27 0 48 14 125 86 147 136 315 277 556 463 122
95 229 182 237 194 24 34 19 75 -14 108 -39 38 -76 38 -132 -3z"/>
</g>
</svg>
